HIERARCHY
ROOT Hips
{
  OFFSET 90.7885 88.945 -76.2838
  CHANNELS 6 Xposition Yposition Zposition Zrotation Xrotation Yrotation
  JOINT LeftUpLeg
  {
    OFFSET 8.64259 1.95398 -2.38835
    CHANNELS 3 Zrotation Xrotation Yrotation
    JOINT LeftLeg
    {
      OFFSET 43.7702 0 0
      CHANNELS 3 Zrotation Xrotation Yrotation
      JOINT LeftFoot
      {
        OFFSET 40.6238 0 0
        CHANNELS 3 Zrotation Xrotation Yrotation
        JOINT LeftToeBase
        {
          OFFSET 12.7242 0 0
          CHANNELS 3 Zrotation Xrotation Yrotation
          End Site
          {
            OFFSET 0 0 0
          }
        }
      }
    }
  }
  JOINT RightUpLeg
  {
    OFFSET -8.2249 1.95398 -2.59336
    CHANNELS 3 Zrotation Xrotation Yrotation
    JOINT RightLeg
    {
      OFFSET 43.5653 0 0
      CHANNELS 3 Zrotation Xrotation Yrotation
      JOINT RightFoot
      {
        OFFSET 40.6238 0 0
        CHANNELS 3 Zrotation Xrotation Yrotation
        JOINT RightToeBase
        {
          OFFSET 12.7242 0 0
          CHANNELS 3 Zrotation Xrotation Yrotation
          End Site
          {
            OFFSET 0 0 0
          }
        }
      }
    }
  }
  JOINT Spine
  {
    OFFSET 0.165834 0.87714 6.61349
    CHANNELS 3 Zrotation Xrotation Yrotation
    JOINT Spine1
    {
      OFFSET 7.38963 1.71661e-005 0
      CHANNELS 3 Zrotation Xrotation Yrotation
      JOINT Spine2
      {
        OFFSET 11.9445 1.14441e-005 0
        CHANNELS 3 Zrotation Xrotation Yrotation
        JOINT Spine3
        {
          OFFSET 14.7254 4.19617e-005 0
          CHANNELS 3 Zrotation Xrotation Yrotation
          JOINT Spine4
          {
            OFFSET 10.9679 0 0
            CHANNELS 3 Zrotation Xrotation Yrotation
            JOINT RightShoulder
            {
              OFFSET 2.46616 -1.6653 3.69651
              CHANNELS 3 Zrotation Xrotation Yrotation
              JOINT RightArm
              {
                OFFSET 13.0012 0 0
                CHANNELS 3 Zrotation Xrotation Yrotation
                JOINT RightForeArm
                {
                  OFFSET 28.7848 1.52588e-005 0
                  CHANNELS 3 Zrotation Xrotation Yrotation
                  JOINT RightHand
                  {
                    OFFSET 26.5688 1.52588e-005 0
                    CHANNELS 3 Zrotation Xrotation Yrotation
                    End Site
                    {
                      OFFSET 0 0 0
                    }
                  }
                }
              }
            }
            JOINT LeftShoulder
            {
              OFFSET 2.38034 -1.29275 -3.7523
              CHANNELS 3 Zrotation Xrotation Yrotation
              JOINT LeftArm
              {
                OFFSET 16.3182 6.10352e-005 0
                CHANNELS 3 Zrotation Xrotation Yrotation
                JOINT LeftForeArm
                {
                  OFFSET 27.0901 0 0
                  CHANNELS 3 Zrotation Xrotation Yrotation
                  JOINT LeftHand
                  {
                    OFFSET 24.5451 1.52588e-005 0
                    CHANNELS 3 Zrotation Xrotation Yrotation
                    End Site
                    {
                      OFFSET 0 0 0
                    }
                  }
                }
              }
            }
            JOINT Neck
            {
              OFFSET 5.0226 -0.0266342 0
              CHANNELS 3 Zrotation Xrotation Yrotation
              JOINT Head
              {
                OFFSET 6.69363 2.86102e-005 0
                CHANNELS 3 Zrotation Xrotation Yrotation
                End Site
                {
                  OFFSET 0 0 0
                }
              }
            }
          }
        }
      }
    }
  }
}
MOTION
Frames:	9
Frame Time:	0.0416667
-25.1547 88.9007 18.514 101.877 49.2106 83.5087 -172.182 29.994 88.5346 -7.70706 19.4188 0.187824 52.8434 5.97669 -13.1744 127.754 -23.3883 -47.6523 172.645 30.7654 96.3206 -50.9026 -7.82964 2.48266 74.503 -2.74838 -2.5636 19.3625 -1.99304 5.66713 -0.839176 7.85848 -90.183 11.1558 -1.75522 -0.193069 -0.51405 -1.76201 -0.115616 -23.0571 -1.61606 -0.711794 -3.0445 -1.61603 -0.711785 88.8542 -33.7707 -107.544 42.6954 -8.193 4.85668 5.95967 -18.9158 -9.79337 -20.0203 -0.418193 -8.10024 -89.6488 -49.5645 79.1634 -15.0457 14.6917 -31.2042 5.00207 5.23594 -8.07548 -0.423907 -0.150829 -7.67537 5.63318 -2.30237 -10.1049 -3.49057 -0.386691 2.22089 
-17.3756 87.6456 10.9668 103.073 47.1478 84.1635 -170.447 27.1153 90.1033 -4.28094 20.6044 0.212091 48.7907 4.72589 -15.0049 128.177 -24.7186 -50.8604 172.423 25.721 97.5849 -58.9923 -9.39673 3.14701 84.4735 -7.16734 -2.32695 17.9863 -2.04513 5.90583 -0.457892 7.95592 -90.4405 10.958 -1.11546 -0.771233 -0.712627 -1.14829 -0.721404 -23.2484 -0.832099 -1.07081 -3.23575 -0.83209 -1.07081 88.7523 -32.5595 -108.192 40.102 -10.705 0.605 5.97242 -19.741 -11.38 -23.0383 -0.493401 -7.59006 -89.9394 -52.3925 79.3151 -16.7563 17.9416 -23.7028 1.65337 4.52305 -0.446464 -0.650239 -0.10854 -5.67059 6.04857 -1.40824 -6.51364 -3.50496 -0.150623 1.19248 
-11.0784 87.8695 4.59878 102.996 47.1851 82.6983 -171.636 25.7572 88.8882 -3.12369 10.4308 0.157297 48.5167 11.1427 -22.9646 131.57 -24.8917 -46.0728 172.095 19.0806 95.4787 -60.0778 -10.5622 2.37323 91.8322 -9.71152 -1.53767 20.3106 -1.56954 4.77695 -0.217087 8.00911 -90.2517 10.8544 -0.54845 -0.449346 -0.81648 -0.567696 -0.424784 -23.3515 -0.388045 -0.593407 -3.33889 -0.388051 -0.593412 88.7641 -32.2782 -108.279 36.7619 -9.94517 -5.17638 4.24113 -19.29 -14.5442 -26.0699 -0.55999 -6.87165 -89.6173 -53.034 79.9142 -21.3765 18.7257 -12.6439 1.70942 1.746 -1.16669 -1.31401 -0.0958316 -4.94367 4.44727 -1.63989 -6.5244 -2.26907 -0.455489 1.46114 
-6.62761 89.7283 -0.462972 101.28 44.9364 81.6293 -174.209 25.9535 88.135 -4.23221 -4.93561 0.0233422 52.7196 15.1459 -32.0884 138.09 -23.9864 -35.7021 172.185 12.5986 92.8789 -55.1743 -12.9762 -0.0999427 93.4406 -11.0927 -2.23809 21.1239 -1.89853 5.34148 0.371101 8.05221 -89.9438 10.7685 0.765001 0.040933 -0.902199 0.766057 0.00721944 -23.4388 0.717322 0.268959 -3.42612 0.717332 0.268957 89.1399 -30.544 -108.242 35.0123 -9.25086 -9.81714 0.780907 -19.7028 -19.9382 -26.4038 -0.412378 -7.7103 -89.0673 -53.7842 80.8505 -23.0828 20.3599 -2.53998 2.28687 2.64784 -8.54831 -2.18788 -0.0921487 -5.24077 5.12739 -2.22316 -4.26603 -2.29655 -1.40421 -0.174041 
-2.80692 91.602 -5.33385 100.628 42.7336 81.7402 -177.65 26.3604 89.2285 -6.92941 -0.729303 -0.0098917 53.1603 7.05986 -25.5313 138.137 -19.9505 -26.3631 171.981 4.64564 92.0402 -47.4618 -15.3742 -1.0419 91.9876 -12.0936 -2.29309 23.0577 -2.38882 6.16756 0.938233 8.17705 -89.9288 10.5209 1.9016 -0.02864 -1.14858 1.89848 -0.112342 -23.6944 1.82224 0.544385 -3.68175 1.82225 0.544383 88.8906 -28.5515 -109.562 32.7248 -8.98404 -13.5445 -1.42873 -20.1356 -24.3336 -27.4015 -0.315379 -8.2548 -89.258 -57.1963 81.1959 -21.57 18.9336 3.87514 2.9835 1.95632 -11.3293 -2.67206 -0.0848559 -4.72665 5.47854 -2.82473 0.927528 -0.807911 -2.98256 -3.85291 
2.02462 92.9783 -11.0575 102.024 42.4591 80.8269 -179.635 24.5253 89.3666 -8.28381 -0.475861 -1.38823 48.0097 0.169407 -19.4862 113.696 -9.6037 -7.65466 170.865 -6.31012 88.6494 -36.2603 -17.0144 -1.33791 90.6212 -13.4584 -3.96787 22.6415 -2.44266 6.30409 1.21802 8.33284 -90.0315 10.2126 2.41257 -0.267767 -1.45617 2.39845 -0.373755 -24.009 2.38143 0.470117 -3.99633 2.38145 0.470113 88.8095 -27.8711 -110.024 30.0959 -8.96791 -16.454 -2.15601 -23.0592 -25.0493 -27.9158 -0.414955 -8.55514 -89.1138 -60.1225 81.8979 -21.6145 14.9024 6.5852 3.71135 0.411647 -8.79051 -2.95923 -0.0916067 -4.29062 4.88547 -3.07492 3.83723 0.0278993 -3.80083 -5.17763 
8.38914 93.3065 -18.1661 101.475 40.4372 80.6406 -179.751 21.0201 88.0437 -8.51316 -2.82972 -2.37196 48.9173 -1.17876 -12.8849 81.897 -5.43148 1.4835 168.289 -15.6932 85.6478 -28.0188 -20.4075 -1.7102 86.5607 -13.0387 -4.84584 27.3863 -2.88202 6.91196 1.54268 8.22095 -89.9496 10.4373 3.09619 -0.172665 -1.23001 3.08561 -0.308899 -23.7936 3.00481 0.766717 -3.78095 3.00481 0.766717 88.2844 -28.2707 -110.905 29.9236 -9.71616 -16.8814 -1.16019 -23.3842 -22.2884 -26.3001 -0.546434 -8.13005 -88.5387 -61.5418 82.8924 -23.0069 13.7426 8.0384 3.22588 -4.66076 -7.29127 -3.97551 -0.076558 -5.36864 4.37763 -3.13076 3.6611 -0.462024 -3.78771 -5.00301 
15.9482 94.3635 -26.369 100.505 38.3304 80.2178 -179.05 16.4034 85.5004 -11.1563 0.640744 -2.2793 54.2344 -0.0118706 -6.03503 38.9496 -4.91895 7.08963 167.243 -17.8772 82.3006 -31.3343 -22.0596 -4.12113 72.6092 -6.47502 -5.19568 41.6711 -5.19301 13.1608 1.61008 7.99352 -89.7128 10.8863 3.33847 0.257821 -0.780404 3.34659 0.110467 -23.3462 3.1065 1.25021 -3.33351 3.1065 1.2502 88.1635 -28.4635 -111.06 34.2438 -12.1336 -14.8523 1.43352 -22.0169 -17.7962 -25.0412 -0.605157 -7.46583 -87.48 -61.9542 84.3531 -23.6195 11.0154 8.40015 4.47943 -4.26267 -8.37377 -5.72674 -0.0538625 -5.62378 5.77964 -2.76904 2.27403 -2.27169 -3.13578 -4.82352 
22.8629 95.1895 -33.7279 102.26 38.685 77.1899 -178.015 15.7382 82.4483 -27.2068 3.58905 -3.38292 65.6529 2.51769 -5.32068 14.0806 -8.26232 11.6056 169.183 -9.73055 79.3251 -51.2494 -24.6306 -5.6802 55.6982 1.51816 0.582265 34.8142 -4.14245 10.2621 1.22567 8.02068 -89.4456 10.8243 2.69654 0.852557 -0.844073 2.73146 0.732967 -23.3946 2.31563 1.62388 -3.382 2.31562 1.62388 87.9612 -28.9938 -111.224 38.2512 -14.3523 -10.7255 3.3596 -21.9322 -15.5417 -24.9037 -0.600647 -7.44138 -88.2076 -60.2627 83.1372 -21.5249 13.9033 2.33405 3.46639 -3.23206 -5.81223 -5.37129 -0.0577485 -5.68554 5.89351 -2.56878 0.221562 -2.01906 -2.55903 -4.26433 
